<?xml version="1.0" encoding="UTF-8"?>
<svg xmlns="http://www.w3.org/2000/svg" viewBox="0 0 372.47 853.16">
  <defs>
    <style>
      .cls-1 {
        fill: #fff;
      }

      .cls-1, .cls-2, .cls-3 {
        stroke-width: 0px;
      }

      .cls-2 {
        fill: #fa002c;
      }

      .cls-3 {
        fill: #039;
      }
    </style>
  </defs>
  <path class="cls-1" d="m304.38,0H68.09C30.55,0,0,30.3,0,67.55v717.8c0,37.39,30.55,67.8,68.09,67.8h238.6c17.66-.64,34.19-7.95,46.53-20.6,12.42-12.73,19.25-29.49,19.25-47.2V67.55c0-37.25-30.55-67.55-68.09-67.55Zm52.09,400.68v384.68c0,28.01-22.43,50.81-50.35,51.8H68.09c-28.66,0-52.09-23.3-52.09-51.8V67.55c0-28.51,23.43-51.55,52.09-51.55h236.28c28.66,0,52.09,23.05,52.09,51.55v333.12Z"/>
  <path class="cls-2" d="m356.47,461.65v323.7c0,28.01-22.43,50.81-50.35,51.8.5-.5,6.23-6.44,6.98-6.94,3.49-2.72,12.96-17.35,12.96-22.55s-13.96-49.82-13.96-53.29,0-11.15-2.49-14.62c-2.49-3.47-3.49-8.68-4.24-11.9-1-3.47-1.74-19.83-1.74-19.83,0,0,5.98-21.56,4.24-30.98-1.74-9.42-16.45-32.72-16.45-33.71,0-.74-10.47-67.17-18.94-85.01-8.72-18.09-19.19-35.44-19.19-35.44,0,0-7.73-37.92-14.71-61.96-3.49-12.14-6.48-25.78-8.72-36.19-1.99-9.91-3.24-17.1-3.24-17.1l5.23-8.68s-20.94-75.6-23.43-79.07c-2.74-3.47-11.21-8.67-11.21-8.67,0,0-4.49-4.21-3.49-4.21.75,0,14.71-37.18,17.2-43.13,2.74-5.95,9.47-18.84,17.45-22.31,7.73-3.47,8.47-4.46,10.22-3.47,1.74.74,7.98,45.61,11.22,56.02,3.49,10.16,14.71,39.41,22.68,51.55,7.73,12.15,11.21,20.57,11.21,20.57,0,0-2.24,2.97-3.99,6.2-24.17,8.92-41.37,31.98-41.37,58.74,0,34.7,28.16,62.71,63.06,62.71,23.68,0,44.36-12.89,55.08-32.22ZM304.38,16h-80.25c1.74.74,19.19,12.39,22.43,16.36,3.24,4.21,2.49,10.41.75,18.1-1.74,7.68-5.24,17.1-5.24,17.1,0,0-2.49,6.2-1.74,6.94,1,.99,1.74,4.46,1.74,4.46,0,0-10.22,18.84-11.21,19.58-.75.99-13.96,24.29-18.2,26.03-1.84.54-3.32,5.47-1.74,6.69,2.31,1.79,12.96,9.67,12.96,9.67l5.23.74,12.96,8.67s1,4.21,6.98,7.68c5.98,3.47,18.94,15.37,26.92,25.78,7.73,10.41,9.47,33.71,10.22,51.56,1,18.09,7.98,57.01,9.47,59.48,1.75,2.48,13.96,32.72,16.45,40.4,2.74,7.68,4.49,25.03,4.49,25.03l11.96,14.62c11.71,5.45,21.43,14.62,27.91,25.78V67.55c0-28.51-23.43-51.55-52.09-51.55Z"/>
  <path class="cls-3" d="m274.71,795.76c.75-17.35,3.49-36.93,3.49-36.93,0,0-4.24-9.66-6.73-16.36-2.74-6.94.05-5.53.75-7.93,0,0,1-8.43-4.24-16.36-5.23-7.68-17.45-33.46-18.2-33.46-1,0,4.24-6.94,4.24-6.94l-10.47-23.3s-59.57-44.62-84.74-67.91c-24.92-23.3-71.78-101.62-76.02-102.37-4.49-.99-12.96,1.74-12.96,1.74,0,0-2.74-7.68-6.23-19.08-1.74-5.45-9.47-24.04-16.7-42.14-6.98-17.35-13.46-34.45-13.46-39.41,0-10.41,0-25.03,2.49-35.44,2.74-10.16,17.45-25.78,16.45-25.78-.75,0-3.49-5.21-3.49-5.21,0,0-11.22,7.43-24.92-3.72-13.96-11.15-3.49-43.13,21.43-103.36,25.17-60.23,35.64-71.88,40.88-76.09,4.98-4.46,7.73-6.2,8.47-6.2,6.98-.19,19.69-.56,25.92-.75l3.49-4.21,24.42-.99c-.1,0,15.67-.76,9.47-40.4,0,0-5.23-12.89-5.23-15.61,0-2.48,3.49-5.95,4.23-6.69,8.38-8.35,8.36-6.7,9.47-30.98l11.47-8.67,6.73-5.2h-116.64c-28.66,0-52.09,23.05-52.09,51.55v717.8c0,28.5,23.43,51.8,52.09,51.8h216.34s-10.47-13.13-9.72-41.39Zm-160.28-2.64h-29.66l-17.95-81.55v81.55h-19.44v-104.1h34.64l12.71,67.67.25-67.67h19.44v104.1Zm66.15-75.1c0,9.91-2.74,17.1-18.69,19.58v.5c12.96.99,18.69,5.95,18.69,22.55v9.17c0,17.84-9.97,23.3-29.41,23.3h-29.16v-104.1h29.16c15.45,0,29.41,5.21,29.41,21.07v7.93Zm43.26,75.1l-2.74-28.26h-11.96l-3.74,28.26h-22.18l18.69-104.1h32.9l14.96,104.1h-25.92Zm-68.23-42.79v23.05c0,4.21-1.74,4.96-5.73,4.96h-2.99v-32.97h2.99c3.99,0,5.73.74,5.73,4.96Zm0-39.68v15.12c0,4.96-1.74,6.69-5.73,6.69h-2.99v-28.51h2.99c3.99,0,5.73,1.73,5.73,6.69Zm59.87-3.51l3.99,42.88h-7.98l3.99-42.88Z"/>
  <path class="cls-1" d="m94.99,689.02h19.44v104.1h-29.66l-17.95-81.55v81.55h-19.44v-104.1h34.64l12.71,67.67.25-67.67Zm233.56-314.12l-11.96-14.62s-1.74-17.35-4.49-25.03c-2.49-7.68-14.7-37.92-16.45-40.4-1.5-2.48-8.47-41.39-9.47-59.48-.75-17.85-2.49-41.15-10.22-51.56-7.98-10.41-20.94-22.3-26.92-25.78-5.98-3.47-6.98-7.68-6.98-7.68l-12.96-8.67-5.23-.74s-10.65-7.88-12.96-9.67c-1.58-1.22-.1-6.15,1.74-6.69,4.24-1.73,17.45-25.03,18.2-26.03,1-.74,11.21-19.58,11.21-19.58,0,0-.75-3.47-1.74-4.46-.75-.74,1.74-6.94,1.74-6.94,0,0,3.49-9.42,5.24-17.1,1.74-7.69,2.49-13.88-.75-18.1-3.24-3.96-20.69-15.62-22.43-16.36h-39.39l-6.73,5.2-11.47,8.67c-1.11,24.29-1.1,22.64-9.47,30.98-.75.74-4.23,4.21-4.23,6.69,0,2.73,5.23,15.61,5.23,15.61,6.2,39.64-9.57,40.41-9.47,40.4l-24.42.99-3.49,4.21c-6.23.19-18.94.56-25.92.75-.75,0-3.49,1.73-8.47,6.2-5.23,4.21-15.7,15.86-40.88,76.09-24.92,60.23-35.39,92.2-21.43,103.36,13.71,11.15,24.92,3.72,24.92,3.72,0,0,2.74,5.21,3.49,5.21,1,0-13.71,15.61-16.45,25.78-2.49,10.41-2.49,25.03-2.49,35.44,0,4.96,6.48,22.06,13.46,39.41,7.23,18.09,14.95,36.68,16.7,42.14,3.49,11.4,6.23,19.08,6.23,19.08,0,0,8.48-2.73,12.96-1.74,4.24.74,51.09,79.07,76.02,102.37,25.17,23.3,84.74,67.91,84.74,67.91l10.47,23.3s-5.23,6.94-4.24,6.94c.75,0,12.96,25.78,18.2,33.46,5.23,7.93,4.24,16.36,4.24,16.36-.7,2.4-3.49.99-.75,7.93,2.49,6.69,6.73,16.36,6.73,16.36,0,0-2.74,19.58-3.49,36.93-.75,28.26,9.72,41.39,9.72,41.39h21.69c.5-.5,6.23-6.44,6.98-6.94,3.49-2.72,12.96-17.35,12.96-22.55s-13.96-49.82-13.96-53.29,0-11.15-2.49-14.62c-2.49-3.47-3.49-8.68-4.24-11.9-1-3.47-1.74-19.83-1.74-19.83,0,0,5.98-21.56,4.24-30.98-1.74-9.42-16.45-32.72-16.45-33.71,0-.74-10.47-67.17-18.94-85.01-8.72-18.09-19.19-35.44-19.19-35.44,0,0-7.73-37.92-14.71-61.96-3.49-12.14-6.48-25.78-8.72-36.19-1.99-9.91-3.24-17.1-3.24-17.1l5.23-8.68s-20.94-75.6-23.43-79.07c-2.74-3.47-11.21-8.67-11.21-8.67,0,0-4.49-4.21-3.49-4.21.75,0,14.71-37.18,17.2-43.13,2.74-5.95,9.47-18.84,17.45-22.31,7.73-3.47,8.47-4.46,10.22-3.47,1.74.74,7.98,45.61,11.22,56.02,3.49,10.16,14.71,39.41,22.68,51.55,7.73,12.15,11.21,20.57,11.21,20.57,0,0-2.24,2.97-3.99,6.2-24.17,8.92-41.37,31.98-41.37,58.74,0,34.7,28.16,62.71,63.06,62.71,23.68,0,44.36-12.89,55.08-32.22v-60.97c-6.48-11.15-16.2-20.32-27.91-25.78Zm-93.75,314.12l14.96,104.1h-25.92l-2.74-28.26h-11.96l-3.74,28.26h-22.18l18.69-104.1h32.9Zm-15.34,61l-3.99-42.88-3.99,42.88h7.98Zm-38.88-39.93v7.93c0,9.91-2.74,17.1-18.69,19.58v.5c12.96.99,18.69,5.95,18.69,22.55v9.17c0,17.84-9.97,23.3-29.41,23.3h-29.16v-104.1h29.16c15.45,0,29.41,5.21,29.41,21.07Zm-24.98,40.25c0-4.21-1.74-4.96-5.73-4.96h-2.99v32.97h2.99c3.99,0,5.73-.74,5.73-4.96v-23.05Zm0-39.68c0-4.96-1.74-6.69-5.73-6.69h-2.99v28.51h2.99c3.99,0,5.73-1.74,5.73-6.69v-15.12Z"/>
</svg>